<svg width="144" height="25" viewBox="0 0 144 25" fill="none" xmlns="http://www.w3.org/2000/svg">
<path d="M14.8 11.96C16.6133 12.1733 17.9067 12.7867 18.68 13.8C19.4533 14.7867 19.84 15.9867 19.84 17.4C19.84 18.28 19.7067 19.12 19.44 19.92C19.1733 20.6933 18.8533 21.36 18.48 21.92C18.1067 22.4533 17.7867 22.8 17.52 22.96C16.4533 23.6533 13.2 24 7.76 24H2.98023e-08V1.2H9.4C11.5333 1.2 13.2533 1.32 14.56 1.56C15.8933 1.77333 16.9733 2.28 17.8 3.08C18.6267 3.85333 19.04 5.04 19.04 6.64C19.04 8.02667 18.6933 9.14667 18 10C17.3333 10.8533 16.2667 11.44 14.8 11.76V11.96ZM11.6 6.04C11.3333 5.77333 11.0133 5.61333 10.64 5.56C10.2933 5.48 9.73333 5.44 8.96 5.44C8.18667 5.44 7.6 5.45333 7.2 5.48V10.36H7.6C7.73333 10.36 8.29333 10.36 9.28 10.36C10.2667 10.36 10.92 10.2933 11.24 10.16C11.48 10.0533 11.6933 9.77333 11.88 9.32C12.0933 8.86667 12.2 8.37333 12.2 7.84C12.2 7.04 12 6.44 11.6 6.04ZM12.28 19.4C12.4667 19.24 12.6133 18.9467 12.72 18.52C12.8533 18.0667 12.92 17.6133 12.92 17.16C12.92 16.6 12.84 16.08 12.68 15.6C12.5467 15.0933 12.36 14.7333 12.12 14.52C11.88 14.28 11.5333 14.12 11.08 14.04C10.6533 13.96 9.92 13.92 8.88 13.92C8.21333 13.92 7.65333 13.9333 7.2 13.96V19.76C8.45333 19.7867 9.57333 19.7733 10.56 19.72C11.5467 19.64 12.12 19.5333 12.28 19.4ZM33.9716 24.52C29.9982 24.52 27.0116 23.5867 25.0116 21.72C23.0382 19.8267 22.0516 16.8 22.0516 12.64C22.0516 8.56 23.1449 5.58667 25.3316 3.72C27.5182 1.85333 30.4116 0.919999 34.0116 0.919999C41.5849 0.919999 45.3716 4.69333 45.3716 12.24C45.3716 16.0533 44.4382 19.0533 42.5716 21.24C40.7316 23.4267 37.8649 24.52 33.9716 24.52ZM33.8116 19.8C34.5582 19.8 35.1849 19.68 35.6916 19.44C36.1982 19.1733 36.5982 18.72 36.8916 18.08C37.4516 16.9867 37.7316 15.2 37.7316 12.72C37.7316 10.2933 37.4516 8.53333 36.8916 7.44C36.3316 6.32 35.3049 5.73333 33.8116 5.68C33.2516 5.68 32.6649 5.74667 32.0516 5.88C31.4649 5.98667 31.0916 6.14667 30.9316 6.36C30.6116 6.73333 30.3582 7.53333 30.1716 8.76C30.0116 9.96 29.9316 11.28 29.9316 12.72C29.9316 14.96 30.1449 16.6 30.5716 17.64C30.8649 18.4133 31.2782 18.9733 31.8116 19.32C32.3449 19.64 33.0116 19.8 33.8116 19.8ZM55.2347 14.8V24H48.5547V1.2H55.3147L61.3547 10.4C62.2614 11.76 62.9547 12.9067 63.4347 13.84H63.5547V10V1.2H70.1947V24H63.3947L57.1947 14.4L55.3947 11.68H55.2747L55.2347 14.8ZM74.0606 1.2H90.4206V6.16H81.2606V10.68H88.8206V15.04H81.2606V24H74.0606V1.2ZM92.8916 1.2H100.092V24H92.8916V1.2ZM124.901 24H117.341L115.981 18.24C115.927 18.0267 115.834 17.6667 115.701 17.16C115.594 16.6267 115.461 16.24 115.301 16C115.141 15.7333 114.914 15.56 114.621 15.48C113.874 15.5067 112.781 15.52 111.341 15.52V24H104.141V1.4C107.367 1.16 110.381 1.04 113.181 1.04C115.714 1.04 117.767 1.25333 119.341 1.68C120.914 2.08 122.087 2.78667 122.861 3.8C123.661 4.78667 124.061 6.14667 124.061 7.88C124.061 9.50667 123.687 10.7867 122.941 11.72C122.194 12.6267 120.994 13.1733 119.341 13.36V13.6C120.274 13.68 121.047 13.9867 121.661 14.52C122.301 15.0267 122.727 15.68 122.941 16.48L124.901 24ZM111.341 11C111.581 11.0267 112.047 11.04 112.741 11.04C114.794 11.04 115.994 10.8667 116.341 10.52C116.661 10.2 116.821 9.45333 116.821 8.28C116.821 7.18667 116.527 6.44 115.941 6.04C115.381 5.64 114.447 5.44 113.141 5.44C112.847 5.44 112.247 5.46667 111.341 5.52V11ZM127.144 1.2H143.744V6H134.344V10.16H142.264V14.48H134.344V19.12H143.704V24H127.144V1.2Z" fill="#EAAA07"/>
</svg>
